<?xml version="1.0" encoding="utf-8" ?>
<svg baseProfile="full" height="200mm" version="1.1" viewBox="0,0,200,200" width="200mm" xmlns="http://www.w3.org/2000/svg" xmlns:ev="http://www.w3.org/2001/xml-events" xmlns:xlink="http://www.w3.org/1999/xlink"><defs /><rect fill="#1a1a1a" height="200" width="200" x="0" y="0" /><text alignment-baseline="middle" fill="#e1ed5e" style="dominant-baseline: central; font-size:9.0px; font-family:Arial;" text-anchor="middle" x="100.0" y="100.0">2025</text><line stroke="#e1ed5e" stroke-width="0.3" x1="100.0" x2="100.0" y1="15.0" y2="10.0" /><path d="M 100.0 14.0 a86.0,86.0 0 0,1 42.46469731375804,11.215312516191453" fill="none" id="id61" stroke="none" /><text fill="#e1ed5e" style="font-size:6.75px; font-family:Arial;" text-anchor="middle"><textPath startOffset="22.20632615414155" xlink:href="#id61">January</textPath></text><path d="M 100.36148047927253 79.00311137660856 l 0.3513175437216521 -20.40656621849174 a41.40959011950546,41.40959011950546 0 0,0 0.7125868055565259,0.018404014851668326 l -0.7025309844730457 20.39749541149771" fill="#ff4806" stroke="none" /><path d="M 100.72285384407766 79.0124445844662 l 0.9746716594263731 -28.298909429280954 a49.31568928580647,49.31568928580647 0 0,0 0.8481339663146774,0.03652243268670002 l -1.461646458130382 28.277939270070057" fill="#ffd513" stroke="none" /><path d="M 101.80526077348638 79.07773832637324 l 2.4186710786398593 -28.031445624339398 a49.1355986887954,49.1355986887954 0 0,0 0.8420317777845242,0.079961063338586 l -2.9008279835146276 27.985659016485634" fill="#ffd213" stroke="none" /><path d="M 102.52436894288641 79.15227682838746 l 2.068906794807741 -17.086248920770718 a38.211051028572896,38.211051028572896 0 0,0 0.6522904286656429,0.08468601850145341 l -2.36271195198123 17.04810457910513" fill="#ff0b01" stroke="none" /><path d="M 103.59715602781102 79.31037775812273 l 4.300515486001735 -24.735107446774713 a46.106174018532386,46.106174018532386 0 0,0 0.7807419251556565,0.1426755964454006 l -4.725652532260292 24.657416368978573" fill="#ff9d0e" stroke="none" /><path d="M 104.66035177308747 79.52364482259891 l 3.6895905027480795 -16.2110864741406 a37.625654957024494,37.625654957024494 0 0,0 0.6302768655429679,0.14916617064521326 l -3.9680910552535713 16.14517439135452" fill="#ff0000" stroke="none" /><path d="M 105.36241919743992 79.69619591428918 l 5.408371322302483 -20.47779326973003 a42.179955088661174,42.179955088661174 0 0,0 0.7003923510412015,0.19144368701389883 l -5.760061562567396 20.381663041889833" fill="#ff5708" stroke="none" /><path d="M 106.74666289553966 80.11325718540242 l 5.446324292263745 -16.053810922841553 a37.952501096972355,37.952501096972355 0 0,0 0.6168510292954767,0.2152072119337299 l -5.721857325622496 15.957682857735614" fill="#ff0601" stroke="none" /><path d="M 107.4271985657038 80.35727306442388 l 10.840876516804327 -28.670887856047006 a51.65198874635418,51.65198874635418 0 0,0 0.828932846131862,0.32161306605472273 l -11.332792527935856 28.480032086101737" fill="#fffb17" stroke="none" /><path d="M 108.09893153111575 80.62456947434976 l 11.805672204521125 -28.243229459156424 a51.611336241385544,51.611336241385544 0 0,0 0.8167278721503695,0.3496802515664503 l -12.290083834461809 28.035829679627184" fill="#fffb17" stroke="none" /><path d="M 108.43124777332544 80.76684994638697 l 8.176414870799453 -18.651831655120898 a41.365278889089645,41.365278889089645 0 0,0 0.6496670786776364,0.2914866808618568 l -8.49626406794387 18.508324643742508" fill="#ff4706" stroke="none" /><line stroke="#e1ed5e" stroke-width="0.3" x1="143.23703022742887" x2="145.7803849466894" y1="26.81831364943548" y2="22.513508569990506" /><path d="M 143.74570117128098 25.957352633546492 a86.0,86.0 0 0,1 28.547481713284135,27.462654790039103" fill="none" id="id62" stroke="none" /><text fill="#e1ed5e" style="font-size:6.75px; font-family:Arial;" text-anchor="middle"><textPath startOffset="19.985693538727396" xlink:href="#id62">February</textPath></text><path d="M 111.2981086023043 82.29822771554956 l 33.894325806912875 -53.10531685335132 a84.0,84.0 0 0,0 1.2121318968628794,0.7884043033618879 l -34.803424729560035 52.514013625829904" fill="#4dd2ff" stroke="none" /><path d="M 112.19680574252982 82.90503203632743 l 16.596870390644412 -23.262071530413937 a49.57586531760576,49.57586531760576 0 0,0 0.6904140003784558,0.5016151332052544 l -16.994829707376656 22.972937162392007" fill="#ffd914" stroke="none" /><line stroke="#e1ed5e" stroke-width="0.3" x1="172.23445277983987" x2="176.4835382374775" y1="55.19839476539836" y2="52.563006222186495" /><path d="M 173.08426987136738 54.67131705675599 a86.0,86.0 0 0,1 12.851231095245387,41.99856678651699" fill="none" id="id63" stroke="none" /><text fill="#e1ed5e" style="font-size:6.75px; font-family:Arial;" text-anchor="middle"><textPath startOffset="22.20632615414155" xlink:href="#id63">March</textPath></text><line stroke="#e1ed5e" stroke-width="0.3" x1="184.98032266829074" x2="189.97916517819016" y1="98.17113171792111" y2="98.06355123074" /><path d="M 185.9800911702706 98.14961562048488 a86.0,86.0 0 0,1 -9.607161424134198,41.387399972396054" fill="none" id="id64" stroke="none" /><text fill="#e1ed5e" style="font-size:6.75px; font-family:Arial;" text-anchor="middle"><textPath startOffset="21.466115282336823" xlink:href="#id64">April</textPath></text><line stroke="#e1ed5e" stroke-width="0.3" x1="174.80103733775053" x2="179.2010983576182" y1="140.37084112569926" y2="142.7455964860345" /><path d="M 175.68104954172406 140.8457921977663 a86.0,86.0 0 0,1 -30.038265399797805,32.042727171017184" fill="none" id="id65" stroke="none" /><text fill="#e1ed5e" style="font-size:6.75px; font-family:Arial;" text-anchor="middle"><textPath startOffset="22.206326154141568" xlink:href="#id65">May</textPath></text><line stroke="#e1ed5e" stroke-width="0.3" x1="143.8653032363475" x2="146.44561519142675" y1="172.8068346515853" y2="177.08958963109032" /><path d="M 144.38136562736335 173.6633856474863 a86.0,86.0 0 0,1 -40.68145358897372,12.25698825130547" fill="none" id="id66" stroke="none" /><text fill="#e1ed5e" style="font-size:6.75px; font-family:Arial;" text-anchor="middle"><textPath startOffset="21.466115282336833" xlink:href="#id66">June</textPath></text><line stroke="#e1ed5e" stroke-width="0.3" x1="102.19456741930631" x2="102.32365962044197" y1="184.97166512339345" y2="189.96999836594603" /><path d="M 102.22038585953345 185.97133177190398 a86.0,86.0 0 0,1 -42.740103519485714,-10.115201625700543" fill="none" id="id67" stroke="none" /><text fill="#e1ed5e" style="font-size:6.75px; font-family:Arial;" text-anchor="middle"><textPath startOffset="22.20632615414155" xlink:href="#id67">July</textPath></text><line stroke="#e1ed5e" stroke-width="0.3" x1="58.666819895761336" x2="56.23545636021788" y1="174.27360380694188" y2="178.64263932499728" /><path d="M 58.180547188652646 175.14741091055294 a86.0,86.0 0 0,1 -31.652253787137756,-30.449443065178592" fill="none" id="id68" stroke="none" /><text fill="#e1ed5e" style="font-size:6.75px; font-family:Arial;" text-anchor="middle"><textPath startOffset="22.20632615414155" xlink:href="#id68">August</textPath></text><line stroke="#e1ed5e" stroke-width="0.3" x1="26.63291911575756" x2="22.317208475507996" y1="142.92168965132927" y2="145.44649492493687" /><path d="M 25.769776987707644 143.4266507060508 a86.0,86.0 0 0,1 -11.730757126820373,-40.83630448921669" fill="none" id="id69" stroke="none" /><text fill="#e1ed5e" style="font-size:6.75px; font-family:Arial;" text-anchor="middle"><textPath startOffset="21.46611528233685" xlink:href="#id69">September</textPath></text><line stroke="#e1ed5e" stroke-width="0.3" x1="15.007084014347285" x2="10.007500721073583" y1="101.09737516637583" y2="101.16192664675087" /><path d="M 14.007167355692545 101.11028546245083 a86.0,86.0 0 0,1 10.666146001902534,-42.60595125391555" fill="none" id="id70" stroke="none" /><text fill="#e1ed5e" style="font-size:6.75px; font-family:Arial;" text-anchor="middle"><textPath startOffset="22.20632615414155" xlink:href="#id70">October</textPath></text><line stroke="#e1ed5e" stroke-width="0.3" x1="26.266209847984243" x2="21.928928074336255" y1="57.711370442889674" y2="55.22380399835377" /><path d="M 25.398753493254645 57.213857153982495 a86.0,86.0 0 0,1 29.58750427330803,-30.492523968695096" fill="none" id="id71" stroke="none" /><text fill="#e1ed5e" style="font-size:6.75px; font-family:Arial;" text-anchor="middle"><textPath startOffset="21.46611528233685" xlink:href="#id71">November</textPath></text><line stroke="#e1ed5e" stroke-width="0.3" x1="56.762969772571076" x2="54.21961505331055" y1="26.818313649435495" y2="22.513508569990535" /><path d="M 56.25429882871897 25.957352633546506 a86.0,86.0 0 0,1 42.265352541879196,-11.944610805530505" fill="none" id="id72" stroke="none" /><text fill="#e1ed5e" style="font-size:6.75px; font-family:Arial;" text-anchor="middle"><textPath startOffset="22.20632615414155" xlink:href="#id72">December</textPath></text></svg>