<?xml version="1.0" encoding="utf-8" ?>
<svg baseProfile="full" height="200mm" version="1.1" viewBox="0,0,200,200" width="200mm" xmlns="http://www.w3.org/2000/svg" xmlns:ev="http://www.w3.org/2001/xml-events" xmlns:xlink="http://www.w3.org/1999/xlink"><defs /><rect fill="#1a1a1a" height="200" width="200" x="0" y="0" /><text alignment-baseline="middle" fill="#e1ed5e" style="dominant-baseline: central; font-size:9.0px; font-family:Arial;" text-anchor="middle" x="100.0" y="100.0">2025</text><line stroke="#e1ed5e" stroke-width="0.3" x1="100.0" x2="100.0" y1="15.0" y2="10.0" /><path d="M 100.0 14.0 a86.0,86.0 0 0,1 42.46469731375804,11.215312516191453" fill="none" id="id61" stroke="none" /><text fill="#e1ed5e" style="font-size:6.75px; font-family:Arial;" text-anchor="middle"><textPath startOffset="22.20632615414155" xlink:href="#id61">January</textPath></text><path d="M 100.36148047927253 79.00311137660856 l 0.11472288222387676 -6.663772233169822 a27.66475968923643,27.66475968923643 0 0,0 0.47606225216308345,0.012295283452919699 l -0.229411769581828 6.660810157574543" fill="#ff1902" stroke="none" /><path d="M 100.72285384407766 79.0124445844662 l 0.3182794141357048 -9.241020016045006 a30.24649948480002,30.24649948480002 0 0,0 0.520180979860328,0.022400087222543427 l -0.4773012263853643 9.234172202298268" fill="#ff4106" stroke="none" /><path d="M 101.80526077348638 79.07773832637324 l 0.7898179930147232 -9.153679605234863 a30.18769082944036,30.18769082944036 0 0,0 0.5173234000325643,0.04912609030667964 l -0.9472665201375317 9.138727970413006" fill="#ff4006" stroke="none" /><path d="M 102.52436894288641 79.15227682838746 l 0.6756023284193271 -5.5795213123158724 a26.620275489756054,26.620275489756054 0 0,0 0.45442746124481564,0.05899772662504185 l -0.7715445181719889 5.567065262526694" fill="#ff0901" stroke="none" /><path d="M 103.59715602781102 79.31037775812273 l 1.4043350251629585 -8.07725907550908 a29.198431010613753,29.198431010613753 0 0,0 0.4944335487387908,0.09035457069230494 l -1.5431636950046503 8.051889023466035" fill="#ff3104" stroke="none" /><path d="M 104.66035177308747 79.52364482259891 l 1.204837231346653 -5.2937366707977835 a26.4291141721084,26.4291141721084 0 0,0 0.44272077811003857,0.10477770444398696 l -1.2957816964192153 5.272213054212927" fill="#ff0601" stroke="none" /><path d="M 105.36241919743992 79.69619591428918 l 1.7661057846945791 -6.687031454795369 a27.91632267322414,27.91632267322414 0 0,0 0.46354669720310654,0.12670482292354107 l -1.8809503711213966 6.655640091045534" fill="#ff1d03" stroke="none" /><path d="M 106.74666289553966 80.11325718540242 l 1.7784993419783621 -5.24237827759818 a26.535845907795007,26.535845907795007 0 0,0 0.4312934164635416,0.15046980433590473 l -1.8684747625051772 5.210987620090068" fill="#ff0801" stroke="none" /><path d="M 107.4271985657038 80.35727306442388 l 3.5400924948579036 -9.362489717761685 a31.009418993495203,31.009418993495203 0 0,0 0.49765220211366495,0.19308132292926447 l -3.7007278619712354 9.300165690941872" fill="#ff4c07" stroke="none" /><path d="M 108.09893153111575 80.62456947434976 l 3.855146906543455 -9.222837699878392 a30.996143901991893,30.996143901991893 0 0,0 0.49050105069050387,0.2100069517004128 l -4.0133317150242735 9.155111220215188" fill="#ff4c07" stroke="none" /><path d="M 108.43124777332544 80.76684994638697 l 2.670011495296894 -6.090762970622845 a27.650289839497823,27.650289839497823 0 0,0 0.43426476279250875,0.1948419405510001 l -2.7744583765561828 6.043900699555314" fill="#ff1902" stroke="none" /><line stroke="#e1ed5e" stroke-width="0.3" x1="143.23703022742887" x2="145.7803849466894" y1="26.81831364943548" y2="22.513508569990506" /><path d="M 143.74570117128098 25.957352633546492 a86.0,86.0 0 0,1 28.547481713284135,27.462654790039103" fill="none" id="id62" stroke="none" /><text fill="#e1ed5e" style="font-size:6.75px; font-family:Arial;" text-anchor="middle"><textPath startOffset="19.985693538727396" xlink:href="#id62">February</textPath></text><path d="M 111.2981086023043 82.29822771554956 l 11.068205437201236 -17.341562127212377 a41.57267480450847,41.57267480450847 0 0,0 0.5998995853387201,0.39019137759689065 l -11.365072048324237 17.14847182545596" fill="#ffe115" stroke="none" /><path d="M 112.19680574252982 82.90503203632743 l 5.419714560623858 -7.596238617054298 a30.3314600704212,30.3314600704212 0 0,0 0.4224084552106058,0.306897706899551 l -5.5496683321882525 7.501821675338071" fill="#ff4206" stroke="none" /><path d="M 113.06298171725822 83.55741782278167 l 39.188945151774654 -49.32774653165496 a84.0,84.0 0 0,0 1.1243864057420354,0.9091756109434814 l -40.032234956081176 48.64586482344735" fill="#4dd2ff" stroke="none" /><path d="M 113.6212207817346 84.01681056812373 l 6.032684218375941 -7.078773348589259 a30.300661858133523,30.300661858133523 0 0,0 0.394061840883987,0.34172654526473184 l -6.153639857906692 6.973881809904856" fill="#ff4206" stroke="none" /><path d="M 114.16331599549186 84.49514656593476 l 4.1247856572896655 -4.51548190293623 a27.115834655574588,27.115834655574588 0 0,0 0.3419075829104108,0.31776583588072554 l -4.201901123994923 4.443811480980864" fill="#ff1101" stroke="none" /><path d="M 114.42810811169701 84.74124197986012 l 3.451542093235075 -3.6502530469884715 a26.023692877597334,26.023692877597334 0 0,0 0.32283847893801293,0.31057036095377677 l -3.5138638157855064 3.590299599272393" fill="#ff0000" stroke="none" /><line stroke="#e1ed5e" stroke-width="0.3" x1="172.23445277983987" x2="176.4835382374775" y1="55.19839476539836" y2="52.563006222186495" /><path d="M 173.08426987136738 54.67131705675599 a86.0,86.0 0 0,1 12.851231095245387,41.99856678651699" fill="none" id="id63" stroke="none" /><text fill="#e1ed5e" style="font-size:6.75px; font-family:Arial;" text-anchor="middle"><textPath startOffset="22.20632615414155" xlink:href="#id63">March</textPath></text><line stroke="#e1ed5e" stroke-width="0.3" x1="184.98032266829074" x2="189.97916517819016" y1="98.17113171792111" y2="98.06355123074" /><path d="M 185.9800911702706 98.14961562048488 a86.0,86.0 0 0,1 -9.607161424134198,41.387399972396054" fill="none" id="id64" stroke="none" /><text fill="#e1ed5e" style="font-size:6.75px; font-family:Arial;" text-anchor="middle"><textPath startOffset="21.466115282336823" xlink:href="#id64">April</textPath></text><line stroke="#e1ed5e" stroke-width="0.3" x1="174.80103733775053" x2="179.2010983576182" y1="140.37084112569926" y2="142.7455964860345" /><path d="M 175.68104954172406 140.8457921977663 a86.0,86.0 0 0,1 -30.038265399797805,32.042727171017184" fill="none" id="id65" stroke="none" /><text fill="#e1ed5e" style="font-size:6.75px; font-family:Arial;" text-anchor="middle"><textPath startOffset="22.206326154141568" xlink:href="#id65">May</textPath></text><line stroke="#e1ed5e" stroke-width="0.3" x1="143.8653032363475" x2="146.44561519142675" y1="172.8068346515853" y2="177.08958963109032" /><path d="M 144.38136562736335 173.6633856474863 a86.0,86.0 0 0,1 -40.68145358897372,12.25698825130547" fill="none" id="id66" stroke="none" /><text fill="#e1ed5e" style="font-size:6.75px; font-family:Arial;" text-anchor="middle"><textPath startOffset="21.466115282336833" xlink:href="#id66">June</textPath></text><line stroke="#e1ed5e" stroke-width="0.3" x1="102.19456741930631" x2="102.32365962044197" y1="184.97166512339345" y2="189.96999836594603" /><path d="M 102.22038585953345 185.97133177190398 a86.0,86.0 0 0,1 -42.740103519485714,-10.115201625700543" fill="none" id="id67" stroke="none" /><text fill="#e1ed5e" style="font-size:6.75px; font-family:Arial;" text-anchor="middle"><textPath startOffset="22.20632615414155" xlink:href="#id67">July</textPath></text><line stroke="#e1ed5e" stroke-width="0.3" x1="58.666819895761336" x2="56.23545636021788" y1="174.27360380694188" y2="178.64263932499728" /><path d="M 58.180547188652646 175.14741091055294 a86.0,86.0 0 0,1 -31.652253787137756,-30.449443065178592" fill="none" id="id68" stroke="none" /><text fill="#e1ed5e" style="font-size:6.75px; font-family:Arial;" text-anchor="middle"><textPath startOffset="22.20632615414155" xlink:href="#id68">August</textPath></text><line stroke="#e1ed5e" stroke-width="0.3" x1="26.63291911575756" x2="22.317208475507996" y1="142.92168965132927" y2="145.44649492493687" /><path d="M 25.769776987707644 143.4266507060508 a86.0,86.0 0 0,1 -11.730757126820373,-40.83630448921669" fill="none" id="id69" stroke="none" /><text fill="#e1ed5e" style="font-size:6.75px; font-family:Arial;" text-anchor="middle"><textPath startOffset="21.46611528233685" xlink:href="#id69">September</textPath></text><line stroke="#e1ed5e" stroke-width="0.3" x1="15.007084014347285" x2="10.007500721073583" y1="101.09737516637583" y2="101.16192664675087" /><path d="M 14.007167355692545 101.11028546245083 a86.0,86.0 0 0,1 10.666146001902534,-42.60595125391555" fill="none" id="id70" stroke="none" /><text fill="#e1ed5e" style="font-size:6.75px; font-family:Arial;" text-anchor="middle"><textPath startOffset="22.20632615414155" xlink:href="#id70">October</textPath></text><line stroke="#e1ed5e" stroke-width="0.3" x1="26.266209847984243" x2="21.928928074336255" y1="57.711370442889674" y2="55.22380399835377" /><path d="M 25.398753493254645 57.213857153982495 a86.0,86.0 0 0,1 29.58750427330803,-30.492523968695096" fill="none" id="id71" stroke="none" /><text fill="#e1ed5e" style="font-size:6.75px; font-family:Arial;" text-anchor="middle"><textPath startOffset="21.46611528233685" xlink:href="#id71">November</textPath></text><line stroke="#e1ed5e" stroke-width="0.3" x1="56.762969772571076" x2="54.21961505331055" y1="26.818313649435495" y2="22.513508569990535" /><path d="M 56.25429882871897 25.957352633546506 a86.0,86.0 0 0,1 42.265352541879196,-11.944610805530505" fill="none" id="id72" stroke="none" /><text fill="#e1ed5e" style="font-size:6.75px; font-family:Arial;" text-anchor="middle"><textPath startOffset="22.20632615414155" xlink:href="#id72">December</textPath></text></svg>